# xmcd CD database file
#
# Track frame offsets:
#	187
#	20672
#	40055
#	56497
#	76835
#	100517
#	123350
#	142385
#	169892
#
# Disc length: 2669 seconds
#
# Revision: 1
# Processed by: cddbd v1.5PL3 Copyright (c) Steve Scherf et al.
# Submitted via: CDex 1.51
#
DISCID=720a6b09
DTITLE=Forcefield ? - Let The Wild Run Free
DYEAR=1990
DGENRE=Hard Rock
TTITLE0=Let The Wild Run Free
TTITLE1=Can't Get Enough Of Your Love
TTITLE2=Money Talks
TTITLE3=I Will Not Go Quietly
TTITLE4=Women On Wings
TTITLE5=Ball Of Confusion
TTITLE6=Living By Numbers 
TTITLE7=The Wind Cries Mary
TTITLE8=In A Perfect World
EXTD=1990 President Records\nMade in France\n\nCozy Powell - drums\nGraham Bonnet - vocals\nRay Fenwick - guitar\n\n    Special Guests\nDon Airey - Bernie Marsden - Mick Moody - Mario Parga YEAR: 1990
EXTT0=
EXTT1=
EXTT2=
EXTT3=
EXTT4=
EXTT5=
EXTT6=
EXTT7=
EXTT8=
PLAYORDER=
